<svg width="190" height="188" viewBox="0 0 190 188" fill="none" xmlns="http://www.w3.org/2000/svg">
<path d="M127.468 1.59923C145.403 5.84967 162.549 15.2828 173.285 29.9196C183.808 44.2678 183.087 62.9191 185.286 80.4273C187.538 98.3572 194.074 117.116 186.297 133.512C178.441 150.073 159.98 158.35 143.898 167.683C127.676 177.098 111.325 188.642 92.4587 187.972C73.5498 187.301 57.964 174.759 42.5332 164.083C27.1407 153.434 9.68133 143.327 3.03494 126.105C-3.56223 109.011 1.87735 90.083 7.21895 72.5766C12.1397 56.4496 20.1275 41.4513 32.4571 29.678C44.4778 18.1997 59.9276 11.6295 76.0302 6.87069C92.8703 1.8939 110.369 -2.45315 127.468 1.59923Z" fill="#FAE084"/>
<circle cx="95" cy="82" r="60" fill="#FFFCF3"/>
<path d="M67.2547 47.2934C67.1281 47.3918 66.6359 48.4184 66.1718 49.5715C65.7078 50.7246 65.2015 51.8215 65.0328 51.9902C64.864 52.1731 63.7531 52.7074 62.5718 53.1856C61.2781 53.6918 60.3359 54.1559 60.2656 54.3105C60.0687 54.6621 60.0968 55.4637 60.3078 55.7449C60.3922 55.8715 61.4187 56.3637 62.5718 56.8277C63.725 57.2918 64.8218 57.798 64.9906 57.9668C65.1734 58.1355 65.7078 59.2465 66.1859 60.4277C66.6922 61.7215 67.1562 62.6637 67.3109 62.734C67.6343 62.9168 68.3656 62.9168 68.689 62.734C68.8437 62.6637 69.3078 61.7215 69.814 60.4277C70.2922 59.2465 70.8265 58.1355 71.0093 57.9668C71.1781 57.798 72.275 57.2918 73.4281 56.8277C74.5812 56.3637 75.6078 55.8715 75.7062 55.7449C75.9312 55.4355 75.9312 54.5637 75.7062 54.2543C75.6078 54.1277 74.5812 53.6356 73.4281 53.1715C72.275 52.7074 71.1781 52.2012 71.0093 52.0324C70.8265 51.8637 70.2922 50.7527 69.814 49.5715C69.3078 48.2777 68.8437 47.3356 68.689 47.2652C68.3375 47.0684 67.5359 47.0965 67.2547 47.2934ZM68.2672 52.1449C68.7031 53.3684 69.6312 54.2824 70.8547 54.7184C71.1359 54.8309 71.375 54.9574 71.375 54.9996C71.375 55.0418 71.1359 55.1684 70.8547 55.2668C69.6312 55.7027 68.7172 56.6309 68.2812 57.8402C68.1687 58.1355 68.0422 58.3746 68 58.3746C67.9578 58.3746 67.8312 58.1355 67.7187 57.8402C67.2828 56.6309 66.3687 55.7027 65.1593 55.2668C64.864 55.1684 64.625 55.0418 64.625 54.9996C64.625 54.9574 64.864 54.8309 65.1593 54.7184C66.3687 54.2824 67.2968 53.3684 67.7328 52.1449C67.8312 51.8637 67.9578 51.6246 68 51.6246C68.0422 51.6246 68.1687 51.8637 68.2672 52.1449Z" fill="#141414"/>
<path d="M109.203 47.8421C108.627 48.2358 107.389 48.9249 106.461 49.3749C103.578 50.7811 101.328 51.4139 94.7891 52.6796C87.0828 54.1702 84.2141 55.1264 80.8672 57.3061C80.2062 57.7421 77.3797 59.8233 74.5672 61.9327C67.5359 67.2343 64.7797 69.0624 61.7703 70.3561C61.0531 70.6515 60.3922 71.003 60.2937 71.1296C60.0687 71.439 60.0828 72.7046 60.3219 73.8436C60.9828 76.9093 62.5297 79.8202 66.5937 85.5858C71.7687 92.9405 74.2297 97.1311 75.875 101.378C76.4937 102.953 76.7469 103.333 77.2109 103.375C78.1812 103.473 78.6875 103.108 78.6875 102.334C78.6875 101.237 76.2687 96.0483 74.0187 92.3218C73.3156 91.1405 71.8531 88.9327 70.7984 87.3858C64.6109 78.4843 63.4016 76.4171 62.7266 73.5343L62.5437 72.7046L64.1047 71.9171C67.1844 70.3843 69.8562 68.5702 75.875 63.9999C81.05 60.0624 82.6391 58.9374 84.1859 58.1639C86.2953 57.0811 89.7687 56.0827 94.3672 55.2108C102.889 53.5936 106.138 52.5952 109.555 50.4999L110.455 49.9514L110.82 50.5702C112.283 53.0452 113.844 58.4593 116.234 69.203C118.288 78.4561 119.258 81.7046 121.016 85.3046C122.141 87.6108 123.041 88.9749 125.445 92.0546C126.402 93.2921 127.203 94.389 127.203 94.5015C127.203 94.5999 126.472 95.4015 125.586 96.2733C124.152 97.6796 123.969 97.9046 123.969 98.3405C123.969 98.9874 124.306 99.4093 124.897 99.5218C125.291 99.5921 125.488 99.5358 125.938 99.2265C126.683 98.7061 128.863 96.428 129.425 95.5843C130.184 94.4171 130.114 94.1499 128.441 91.9702C124.405 86.6968 123.87 85.8811 122.759 83.3921C121.325 80.1436 120.523 77.3171 118.47 68.1765C116.22 58.1077 114.913 53.5093 113.436 50.4296C111.748 46.8999 111.144 46.5202 109.203 47.8421Z" fill="#141414"/>
<path d="M122.38 47.2936C122.253 47.392 121.831 48.2639 121.437 49.2202C121.058 50.1764 120.636 51.0764 120.509 51.217C120.383 51.3577 119.469 51.7936 118.47 52.1873C117.416 52.6092 116.586 53.0311 116.516 53.1858C116.319 53.5373 116.347 54.3389 116.558 54.6202C116.642 54.7467 117.514 55.1686 118.47 55.5623C119.427 55.942 120.327 56.3639 120.467 56.4905C120.608 56.617 121.044 57.5311 121.437 58.5295C121.859 59.5842 122.281 60.4139 122.436 60.4842C122.787 60.6811 123.589 60.653 123.87 60.442C123.997 60.3577 124.419 59.4858 124.812 58.5295C125.192 57.5733 125.614 56.6733 125.741 56.5327C125.867 56.392 126.739 55.9702 127.667 55.6045C128.609 55.2389 129.481 54.8311 129.622 54.6905C129.903 54.4092 129.959 53.5936 129.734 53.1858C129.664 53.0311 128.834 52.6092 127.78 52.1873C126.781 51.7936 125.867 51.3577 125.741 51.217C125.614 51.0764 125.192 50.1764 124.812 49.2202C124.419 48.2639 123.997 47.392 123.87 47.2936C123.744 47.2092 123.406 47.1248 123.125 47.1248C122.844 47.1248 122.506 47.2092 122.38 47.2936ZM123.758 52.6514C123.997 52.9608 124.447 53.3545 124.77 53.5092C125.445 53.8467 125.502 53.9592 125.066 54.0717C124.559 54.1983 123.744 54.9436 123.434 55.5623L123.153 56.1389L122.773 55.492C122.408 54.8592 121.437 54.0155 121.058 54.0155C120.706 54.0155 120.875 53.8045 121.452 53.5514C122.014 53.2842 122.984 52.1873 122.998 51.7795C122.998 51.5967 123.027 51.5967 123.167 51.8217C123.266 51.9623 123.533 52.342 123.758 52.6514Z" fill="#141414"/>
<path d="M97.0391 59.7386C95.9422 60.3151 95.2391 61.3417 95.0703 62.6636C94.9578 63.4511 95.2672 65.462 95.7172 67.023C95.9281 67.7401 98.7969 76.5714 99.4297 78.4417C99.7109 79.2855 98.0937 76.6276 94.2266 69.9058C90.8797 64.0839 90.1344 62.9167 89.3187 62.1995C88.4609 61.4542 87.3078 61.4261 86.1547 62.1292C84.6359 63.0714 84.2422 64.548 84.9312 66.7417C85.3672 68.1198 86.8859 71.1573 88.8547 74.5745C90.1906 76.8808 92.2297 80.8042 92.6656 81.9292L92.8906 82.4917L92.1594 81.7183C91.7656 81.2964 90.3875 79.6792 89.0937 78.1323C85.2547 73.5339 83.7641 72.3245 82.1891 72.4651C81.4156 72.5495 80.6844 73.0417 80.1359 73.8292C79.4891 74.7855 79.5734 76.3745 80.3609 77.9917C80.6 78.4558 82.6812 81.3667 85.0156 84.4605C90.4578 91.6745 93.8609 96.723 93.1156 96.4417C92.8203 96.3292 90.7531 94.923 88.1797 93.1089C85.1281 90.9573 83.1453 90.0151 81.6547 90.0151C80.2344 90.0151 78.6312 91.2667 78.2094 92.7011C77.9141 93.6573 77.9281 94.037 78.2656 94.7683C78.6172 95.5276 78.9687 95.8651 81.3594 97.6792C83.5109 99.3245 85.1984 100.773 88.1937 103.571C90.7672 105.962 92.3844 107.27 94.6484 108.803C97.4047 110.659 99.3453 111.531 103.297 112.712C104.492 113.078 105.659 113.443 105.87 113.528C106.292 113.696 106.714 114.4 107.248 115.82C107.403 116.242 107.656 116.664 107.797 116.734C108.177 116.945 108.95 116.903 109.302 116.664C109.934 116.228 109.822 115.44 108.781 113.289C108.078 111.826 107.727 111.601 104.562 110.603C101.328 109.576 100.386 109.225 98.8812 108.479C96.125 107.101 93.2984 104.978 89.3891 101.35C86.8719 99.0151 85.2406 97.623 82.3016 95.3167C80.7969 94.1073 80.5156 93.8401 80.5156 93.5026C80.5156 92.912 81.3312 92.3495 82.0203 92.448C83.1031 92.6308 84.6359 93.5448 89.15 96.7511C91.6531 98.523 92.6937 99.0573 93.8187 99.1276C94.8453 99.198 95.45 98.9448 95.7875 98.2839C96.1672 97.5526 95.9703 96.512 95.1547 94.8526C93.9734 92.4761 91.8219 89.4105 85.4234 80.9448C82.3297 76.8667 81.7391 75.7558 82.2594 75.0386C82.4422 74.7855 82.4562 74.7855 82.85 75.0386C83.5391 75.4745 85.1422 77.1901 87.3219 79.8198C91.5406 84.8964 92.7078 85.923 94.2687 85.937C95.6187 85.937 96.1531 85.2198 95.8578 83.7855C95.4781 81.9433 93.6641 78.0761 90.8516 73.1401C88.2219 68.5136 86.9844 65.9261 86.9844 64.9839C86.9844 64.5761 87.5891 63.9292 87.8422 64.0698C88.0953 64.2386 89.375 66.3339 92.1875 71.2417C96.9828 79.5948 97.5875 80.523 98.8672 81.7042C99.9922 82.7308 100.892 82.8151 101.68 81.9995C102.017 81.648 102.102 81.423 102.144 80.7339C102.242 79.4401 102.017 78.5964 100.062 72.648C97.3625 64.4355 97.0953 63.2401 97.7562 62.3542C98.15 61.8198 98.3609 61.862 98.825 62.523C99.3594 63.2964 100.133 65.3073 101.834 70.3276C103.48 75.1933 104.197 77.0214 104.984 78.3573C105.73 79.6089 106.236 80.0308 107.009 80.0308C107.741 80.0308 108.177 79.7355 108.514 78.9901C108.894 78.1605 108.866 75.6714 108.416 71.523C108.219 69.6667 108.036 66.9808 107.994 65.5464C107.895 62.2698 108.078 61.8901 108.908 63.5495C109.555 64.8433 110.117 66.7698 112.016 74.2792C113.984 82.0417 113.689 81.198 117.12 89.3964C119.539 95.162 119.778 96.048 120.242 101.026C120.552 104.345 120.622 104.64 121.48 105.667C123.547 108.156 127.695 113.035 127.934 113.246C128.103 113.401 128.441 113.5 128.764 113.5C129.495 113.5 129.875 113.12 129.875 112.375C129.875 111.854 129.664 111.573 126.472 107.804C124.587 105.582 123.012 103.642 122.956 103.501C122.9 103.346 122.717 101.884 122.562 100.253C122.253 97.0745 121.902 95.0355 121.367 93.4605C121.184 92.912 120.369 90.8589 119.539 88.8901C115.855 80.073 116.262 81.2823 114.491 74.1948C111.889 63.7886 111.312 62.1292 109.92 60.8636C109.259 60.2589 108.88 60.1464 107.923 60.2308C106.77 60.3433 105.983 61.1448 105.702 62.4667C105.434 63.6761 105.533 66.6292 105.969 71.0448C106.208 73.3933 106.377 75.4042 106.362 75.5026C106.306 75.7839 105.42 73.4495 104.337 70.1589C101.975 62.973 100.752 60.4136 99.3031 59.7245C98.6984 59.4433 97.5875 59.4433 97.0391 59.7386Z" fill="#141414"/>
<path d="M68.3797 97.9184C68.2531 98.0168 67.7047 99.1981 67.1562 100.548C66.5797 101.996 66.0172 103.164 65.8062 103.389C65.5531 103.656 64.5828 104.12 62.9093 104.795C61.3906 105.4 60.35 105.906 60.2656 106.061C60.0687 106.412 60.0968 107.214 60.3078 107.495C60.3922 107.621 61.5734 108.17 62.9234 108.718C64.3718 109.295 65.539 109.857 65.764 110.068C66.0312 110.321 66.4953 111.292 67.1703 112.965C67.775 114.484 68.2812 115.525 68.4359 115.609C68.7594 115.792 69.4906 115.792 69.814 115.609C69.9687 115.525 70.475 114.484 71.0797 112.965C71.7547 111.292 72.2187 110.321 72.4859 110.068C72.7109 109.857 73.8781 109.295 75.3265 108.718C76.6765 108.17 77.8578 107.621 77.9562 107.495C78.0406 107.368 78.125 107.031 78.125 106.75C78.125 106.468 78.0406 106.131 77.9562 106.004C77.8578 105.878 76.6765 105.329 75.3265 104.781C73.8781 104.204 72.7109 103.642 72.4859 103.431C72.2187 103.178 71.7547 102.207 71.0797 100.534C70.475 99.0152 69.9687 97.9746 69.814 97.8902C69.4625 97.6934 68.6609 97.7215 68.3797 97.9184ZM69.5328 103.121C69.9828 104.303 70.5594 105.104 71.2765 105.596C71.6 105.821 72.2609 106.159 72.7531 106.342C73.2312 106.525 73.625 106.707 73.625 106.75C73.625 106.792 73.2312 106.975 72.7531 107.157C71.0094 107.832 70.2078 108.634 69.5328 110.364C69.35 110.856 69.1672 111.25 69.125 111.25C69.0828 111.25 68.9 110.856 68.7172 110.364C68.0422 108.634 67.2406 107.832 65.5109 107.157C65.0187 106.975 64.625 106.792 64.625 106.75C64.625 106.707 65.0187 106.525 65.5109 106.342C67.2547 105.667 68.0281 104.879 68.7312 103.065C68.914 102.615 69.0828 102.25 69.125 102.25C69.1672 102.25 69.35 102.643 69.5328 103.121Z" fill="#141414"/>
<path d="M78.8281 109.281C78.4906 109.618 78.4625 110.251 78.7578 112.009C78.8703 112.698 78.9968 113.837 79.0531 114.54C79.1656 116.115 79.3765 116.692 79.8968 116.818C80.5297 116.987 83.0187 116.776 85.0156 116.382C88.714 115.665 95.3234 113.851 95.9843 113.373C96.4203 113.064 96.5328 112.234 96.2093 111.742C95.8156 111.151 95.3797 111.179 92.525 112.023C89.2625 112.993 85.9297 113.809 83.6234 114.189C82.6672 114.357 81.8093 114.484 81.6968 114.484C81.5 114.484 81.4859 114.428 81.1484 111.882C80.8953 109.9 80.7265 109.323 80.375 109.14C79.925 108.901 79.1375 108.971 78.8281 109.281Z" fill="#141414"/>
</svg>
