<svg width="190" height="188" viewBox="0 0 190 188" fill="none" xmlns="http://www.w3.org/2000/svg">
<path d="M98.016 2.95747e-06C116.505 -0.00422038 134.934 4.51464 150.309 14.7847C165.664 25.042 177.138 40.2217 183.935 57.3929C190.581 74.1847 191.423 92.5545 188.119 110.309C184.873 127.751 177.356 144.158 165.355 157.223C153.455 170.178 137.757 178.684 120.85 183.538C103.828 188.424 85.8219 189.881 68.8171 184.935C51.6302 179.936 40.1694 166.993 28.3256 153.571C16.272 139.912 3.54197 125.95 0.864018 107.93C-1.84455 89.7037 1.97702 71.1158 10.0592 54.5571C18.0884 38.1072 30.7617 24.4565 46.3162 14.8084C61.8652 5.16384 79.7193 0.00418248 98.016 2.95747e-06Z" fill="#FAE084"/>
<circle cx="95" cy="82" r="60" fill="#FFFCF3"/>
<path d="M103.156 48.5312C102.889 48.7984 102.875 48.9953 102.875 51.625C102.875 54.2547 102.889 54.4516 103.156 54.7188C103.311 54.8734 103.564 55 103.719 55C103.986 55 104 55.0984 104 56.9688V58.9375L102.425 57.7844C101.553 57.1516 99.6406 55.7594 98.1781 54.6906C95.9 53.0172 95.45 52.75 95 52.75C94.5359 52.75 92.9891 53.8328 79.7281 63.5219C71.6141 69.4422 64.8922 74.3922 64.7938 74.5187C64.7094 74.6453 64.625 74.9828 64.625 75.2781C64.625 75.9391 64.6531 75.9672 67.2125 77.8516L69.1109 79.2578L69.125 89.6219V100H68.6328C66.6922 100 64.625 102.095 64.625 104.064C64.625 104.542 64.5828 104.613 64.2313 104.683C63.2047 104.894 61.7141 106.398 61.3906 107.566C61.1516 108.438 61.2219 109.9 61.5453 110.758C61.9391 111.798 62.9516 112.811 63.9922 113.205L64.7797 113.5H95H125.22L126.008 113.205C128.23 112.375 129.355 109.647 128.455 107.256C128.019 106.075 126.444 104.641 125.586 104.641C125.431 104.641 125.375 104.486 125.375 104.078C125.375 102.095 123.308 100 121.367 100H120.875V89.6219L120.889 79.2578L122.788 77.8516C125.361 75.9531 125.375 75.9391 125.375 75.25C125.375 74.8984 125.277 74.5891 125.122 74.4344C124.995 74.3078 122.717 72.6203 120.059 70.6797L115.25 67.1641V61.0891C115.25 55.0984 115.25 55 115.531 55C115.686 55 115.939 54.8734 116.094 54.7188C116.361 54.4516 116.375 54.2547 116.375 51.625C116.375 48.9953 116.361 48.7984 116.094 48.5312C115.827 48.2641 115.63 48.25 109.625 48.25C103.62 48.25 103.423 48.2641 103.156 48.5312ZM114.125 51.625V52.75H109.625H105.125V51.625V50.5H109.625H114.125V51.625ZM113 60.2031C113 63.0578 112.958 65.4062 112.916 65.4062C112.873 65.4062 111.355 64.3234 109.541 63.0016L106.25 60.5828V57.7984V55H109.625H113V60.2031ZM108.641 65.3359C116.066 70.75 122.127 75.2078 122.141 75.25C122.141 75.2922 121.606 75.7281 120.945 76.2203L119.75 77.1063L119.3 76.7687C119.047 76.6 113.591 72.6344 107.178 67.9797C96.6875 60.3438 95.4781 59.5 95 59.5C94.5219 59.5 93.3125 60.3438 82.8219 67.9797C76.4094 72.6344 70.9531 76.6 70.7 76.7687L70.25 77.1063L69.0547 76.2203C68.3938 75.7281 67.8594 75.2922 67.8594 75.25C67.8734 75.1234 94.9297 55.4219 95.0422 55.4641C95.1125 55.4781 101.23 59.9219 108.641 65.3359ZM106.813 70.7219L118.555 79.2719L118.597 95.2609L118.625 111.25H116.375H114.125V98.0312C114.125 84.9953 114.125 84.8125 113.844 84.5312C113.563 84.25 113.38 84.25 105.125 84.25C96.8703 84.25 96.6875 84.25 96.4063 84.5312C96.125 84.8125 96.125 84.9953 96.125 98.0312V111.25H83.75H71.375L71.4031 95.2609L71.4453 79.2719L83.1875 70.7219C89.6422 66.025 94.9578 62.1719 95 62.1719C95.0422 62.1719 100.358 66.025 106.813 70.7219ZM111.875 98.875V111.25H105.125H98.375V98.875V86.5H105.125H111.875V98.875ZM69.125 106.834V111.278L67.1844 111.222C65.0188 111.166 64.5547 111.011 63.9641 110.125C63.3453 109.225 63.6406 107.833 64.5688 107.228C64.7656 107.088 65.2859 106.933 65.7359 106.877C66.3266 106.792 66.5938 106.68 66.8469 106.398C67.1281 106.061 67.1563 105.934 67.0719 104.95C67.0016 104.008 67.0297 103.811 67.2828 103.403C67.6203 102.883 68.3516 102.391 68.8156 102.391H69.125V106.834ZM121.972 102.672C122.225 102.827 122.548 103.15 122.717 103.403C122.97 103.811 122.998 104.008 122.928 104.95C122.844 105.934 122.872 106.061 123.153 106.398C123.392 106.68 123.673 106.792 124.25 106.877C125.122 106.989 125.459 107.144 125.881 107.622C126.838 108.662 126.5 110.223 125.164 110.941C124.855 111.109 124.222 111.18 122.816 111.222L120.875 111.278V106.834V102.391H121.198C121.367 102.391 121.719 102.517 121.972 102.672Z" fill="#141414"/>
<path d="M76.1562 84.5312C75.875 84.8125 75.875 84.9953 75.875 93.25C75.875 101.505 75.875 101.688 76.1562 101.969C76.4234 102.236 76.6203 102.25 83.75 102.25C90.8797 102.25 91.0766 102.236 91.3438 101.969C91.625 101.688 91.625 101.505 91.625 93.25C91.625 84.9953 91.625 84.8125 91.3438 84.5312C91.0766 84.2641 90.8797 84.25 83.75 84.25C76.6203 84.25 76.4234 84.2641 76.1562 84.5312ZM82.625 89.3125V92.125H80.375H78.125V89.3125V86.5H80.375H82.625V89.3125ZM89.375 89.3125V92.125H87.125H84.875V89.3125V86.5H87.125H89.375V89.3125ZM82.625 97.1875V100H80.375H78.125V97.1875V94.375H80.375H82.625V97.1875ZM89.375 97.1875V100H87.125H84.875V97.1875V94.375H87.125H89.375V97.1875Z" fill="#141414"/>
<path d="M100.906 96.9062C100.723 97.0891 100.625 97.3703 100.625 97.75C100.625 98.4953 101.005 98.875 101.75 98.875C102.495 98.875 102.875 98.4953 102.875 97.75C102.875 97.3703 102.777 97.0891 102.594 96.9062C102.411 96.7234 102.13 96.625 101.75 96.625C101.37 96.625 101.089 96.7234 100.906 96.9062Z" fill="#141414"/>
</svg>
