<svg width="95" height="37" viewBox="0 0 95 37" fill="none" xmlns="http://www.w3.org/2000/svg">
<g opacity="0.7" clip-path="url(#clip0_1_124)">
<path d="M1.29236 9.97175H8.04238C12.3509 9.97175 15.0796 13.4186 15.0796 18.158C15.0796 20.7431 14.2179 23.0409 12.4944 24.4771C11.3456 25.4824 9.76571 26.0569 7.75512 26.0569H1.29236V9.97175ZM7.5397 23.2564C10.6275 23.2564 11.7764 21.3894 11.7764 18.2298C11.7764 15.0702 10.4121 12.8441 7.61151 12.8441H4.52374V23.3282H7.5397V23.2564ZM15.5823 20.3123C15.5823 16.8654 18.0237 14.2085 21.6141 14.2085C25.2046 14.2085 27.6461 16.8654 27.6461 20.3123C27.6461 23.759 25.2046 26.4159 21.6141 26.4159C18.0237 26.4159 15.5823 23.6872 15.5823 20.3123ZM24.4865 20.3123C24.4865 18.0861 23.4094 16.5063 21.5424 16.5063C19.6753 16.5063 18.5982 18.0144 18.5982 20.3123C18.5982 22.6101 19.6035 24.0463 21.5424 24.0463C23.4812 24.0463 24.4865 22.5383 24.4865 20.3123ZM28.2205 20.3123C28.2205 16.8654 30.4467 14.2085 33.9652 14.2085C36.9812 14.2085 38.7764 15.9319 39.2073 18.4452H36.1913C35.9759 17.4399 35.186 16.65 34.1088 16.65C32.2419 16.65 31.3083 18.0861 31.3083 20.3123C31.3083 22.4665 32.17 23.9745 34.0371 23.9745C35.2578 23.9745 36.1195 23.3282 36.3349 22.0356H39.3508C39.1354 24.4771 37.2684 26.4159 34.1807 26.4159C30.5184 26.3442 28.2205 23.6872 28.2205 20.3123ZM47.3934 26.0569V24.6925H47.3216C46.5317 25.7697 45.67 26.3442 44.0184 26.3442C41.4333 26.3442 39.9972 24.6925 39.9972 22.1793V14.4957H43.0131V21.6766C43.0131 23.0409 43.5876 23.759 44.9519 23.759C46.3881 23.759 47.2498 22.6819 47.2498 21.1739V14.4957H50.3376V25.9851H47.3934V26.0569ZM65.2019 10.0436H68.2897V12.9159H65.2019V10.0436ZM65.2019 14.4957H68.2897V25.9851H65.2019V14.4957ZM69.5104 26.3442H72.5264C72.7415 27.0622 73.46 27.6367 74.8245 27.6367C76.5475 27.6367 77.4093 26.775 77.4093 25.267V23.9745H77.3373C76.6915 24.7643 75.7581 25.3388 74.3217 25.3388C71.7366 25.3388 69.2232 23.3282 69.2232 19.8096C69.2232 16.3627 71.3058 14.2085 74.1778 14.2085C75.6142 14.2085 76.6915 14.783 77.3373 15.7165H77.4093V14.4957H80.3538V25.1234C80.3538 26.775 79.8505 27.8521 78.9888 28.642C78.055 29.5755 76.5475 29.9346 74.8245 29.9346C71.8086 29.9346 69.8694 28.642 69.5104 26.3442ZM77.6245 19.7378C77.6245 18.0861 76.6908 16.65 74.8964 16.65C73.3161 16.65 72.3106 17.8707 72.3106 19.8096C72.3106 21.7484 73.3161 22.8973 74.8964 22.8973C76.8348 22.8973 77.6245 21.4611 77.6245 19.7378ZM84.7338 16.0755C85.5955 14.8548 86.6725 14.2085 88.18 14.2085C90.55 14.2085 92.1295 16.0037 92.1295 18.517V26.0569H89.0418V19.0197C89.0418 17.799 88.324 16.9372 87.0318 16.9372C85.6675 16.9372 84.6618 18.0144 84.6618 19.5942V26.1287H81.718V14.6393H84.7338V16.0755ZM58.2365 16.3627C55.8668 15.8601 54.7897 15.4292 54.7897 14.1367C54.7897 12.9878 55.9386 12.2697 57.662 12.2697C59.2418 12.2697 60.4626 12.9878 60.7498 14.4957H63.9093C63.5504 11.408 61.2525 9.68457 57.662 9.68457C54.0716 9.68457 51.4865 11.3361 51.4865 14.4957C51.4865 17.8707 54.1434 18.5889 57.0158 19.2351C59.4572 19.8096 60.9652 20.0967 60.9652 21.6766C60.9652 23.1846 59.529 23.759 57.8774 23.759C55.5796 23.759 54.5025 22.9691 54.2871 21.0303H51.1275C51.2711 24.4053 53.7126 26.3442 58.0929 26.3442C61.6833 26.3442 64.3402 24.5489 64.3402 21.2457C64.2684 17.8707 61.5396 17.0808 58.2365 16.3627ZM93.4225 16.65C92.7768 16.65 92.2015 16.0755 92.2015 15.4292C92.2015 14.783 92.7768 14.2085 93.4225 14.2085C94.069 14.2085 94.6435 14.783 94.6435 15.4292C94.6435 16.0755 94.069 16.65 93.4225 16.65ZM93.4225 14.4239C92.848 14.4239 92.4175 14.8548 92.4175 15.4292C92.4175 16.0037 92.848 16.4346 93.4225 16.4346C93.997 16.4346 94.4275 16.0037 94.4275 15.4292C94.4275 14.8548 93.997 14.4239 93.4225 14.4239Z" fill="white"/>
<path d="M92.9922 14.7832H93.4234C93.5667 14.7832 93.7099 14.7832 93.7819 14.855C93.8539 14.9268 93.9259 14.9987 93.9259 15.1422C93.9259 15.3577 93.7819 15.4295 93.7099 15.5013L93.9979 16.004H93.7099L93.4947 15.5731H93.2082V16.004H92.9922V14.7832ZM93.2082 14.9987V15.3577H93.4234C93.4954 15.3577 93.6387 15.3577 93.6387 15.1422C93.6387 15.1422 93.6387 14.9987 93.5667 14.9987H93.2082Z" fill="white"/>
</g>
<defs>
<clipPath id="clip0_1_124">
<rect width="93.75" height="36" fill="white" transform="translate(0.94165 0.68457)"/>
</clipPath>
</defs>
</svg>
