<svg width="186" height="37" viewBox="0 0 186 37" fill="none" xmlns="http://www.w3.org/2000/svg">
<g opacity="0.7">
<path fill-rule="evenodd" clip-rule="evenodd" d="M88.7471 9.39993V26.8813H93.5292V13.7918L102.482 26.8813H109.783V9.39993H105.003V21.8011L96.484 9.39993H88.7471ZM121.604 9.39993V26.8813H126.385V13.7918L135.339 26.8813H142.64V9.39993H137.859V21.8011L129.34 9.39993H121.604ZM117.954 26.8813V9.39993H113.173V26.8813H117.954ZM54.0655 8.68457C62.236 8.68457 65.2522 12.9378 65.2522 18.1846C65.2522 23.4297 62.236 27.6837 54.0655 27.6837C45.895 27.6837 42.8795 23.4297 42.8795 18.1846C42.8787 12.9378 45.8941 8.68457 54.0655 8.68457ZM54.0655 11.6077C50.0668 11.6077 48.6355 14.552 48.6355 18.1846C48.6355 21.8163 50.0668 24.7606 54.0655 24.7606C58.0641 24.7606 59.4954 21.8163 59.4954 18.1846C59.4954 14.552 58.0641 11.6077 54.0655 11.6077ZM34.6596 20.0753C34.191 22.7853 32.5915 24.7606 29.2185 24.7606C25.1004 24.7606 23.6256 21.8163 23.6256 18.1846C23.6256 14.552 25.1004 11.6077 29.2185 11.6077C32.4106 11.6077 34.0143 13.3767 34.5742 15.8635L40.5145 15.8575C39.6653 11.7354 36.3469 8.68542 29.2185 8.68542C20.8031 8.68542 17.6964 12.9386 17.6964 18.1854C17.6964 23.4305 20.8031 27.6846 29.2185 27.6846C36.5825 27.6846 39.8813 24.4274 40.5914 20.099L34.6596 20.0753ZM156.648 24.7606C152.529 24.7606 151.055 21.8163 151.055 18.1846C151.055 14.552 152.529 11.6077 156.648 11.6077C159.408 11.6077 160.98 12.9302 161.719 14.897L167.696 14.9046C166.548 11.2746 163.214 8.68542 156.648 8.68542C148.232 8.68542 145.126 12.9386 145.126 18.1854C145.126 23.4305 148.232 27.6846 156.648 27.6846C160.025 27.6567 164.111 26.6242 167.586 23.8677V17.4092H157.069V20.6824H162.024V23.1794C160.98 23.8677 159.616 24.7065 156.648 24.7606ZM73.0149 20.0786H78.6647C79.0991 20.0786 79.6208 20.422 79.7948 21.0248L80.5778 26.0205C80.5778 26.2784 80.8386 26.8813 81.3602 26.8813H86.5762C86.4016 26.538 85.9673 25.5901 85.881 24.9872L85.1858 20.8532C84.9254 19.4758 83.7953 18.1846 82.404 18.0112C84.3165 17.2367 85.881 15.6005 85.881 13.6202C85.881 11.639 83.9684 9.39993 80.6655 9.39993H67.6249V26.8813H73.0139L73.0149 20.0786ZM73.0149 12.5827H78.0563C78.6106 12.5827 79.1423 12.8008 79.534 13.1891C79.9262 13.5773 80.1462 14.1039 80.1462 14.653C80.1462 15.2021 79.9262 15.7288 79.534 16.117C79.1423 16.5053 78.6106 16.7234 78.0563 16.7234L73.0149 16.72V12.5827Z" fill="white"/>
</g>
</svg>
