<svg width="129" height="29" viewBox="0 0 129 29" fill="none" xmlns="http://www.w3.org/2000/svg">
<g opacity="0.7">
<path d="M125.175 10.0407C125.175 9.21318 125.846 8.52832 126.688 8.52832C127.53 8.52832 128.2 9.21318 128.2 10.0407C128.2 10.8826 127.53 11.5531 126.688 11.5531C125.846 11.5531 125.175 10.8683 125.175 10.0407ZM125.461 10.0407C125.461 10.7256 126.003 11.282 126.688 11.282C127.358 11.282 127.915 10.7256 127.915 10.0407C127.915 9.35587 127.358 8.79941 126.688 8.79941C126.003 8.79941 125.461 9.35587 125.461 10.0407ZM126.46 10.8968H126.103V9.17038H126.788C127.13 9.17038 127.401 9.34158 127.401 9.71255C127.401 9.96941 127.258 10.1263 127.073 10.2119L127.43 10.8968H127.044L126.73 10.269H126.46V10.8968ZM126.759 9.51284H126.46V9.94084H126.759C126.888 9.94084 127.03 9.88382 127.03 9.72684C127.03 9.55564 126.888 9.51284 126.759 9.51284Z" fill="white"/>
<path fill-rule="evenodd" clip-rule="evenodd" d="M54.3734 21.9544L48.2093 12.6946V21.9544H45.4554V8.52832H48.6374L54.459 17.2888V8.52832H57.2129V21.9544H54.3734ZM63.5054 12.5947C60.723 12.5947 58.4828 14.6635 58.4828 17.403C58.4828 20.1709 60.6945 22.1684 63.4769 22.1684C66.2448 22.1684 68.4855 20.1138 68.4855 17.3459C68.471 14.6065 66.2592 12.5947 63.5054 12.5947ZM63.4769 19.7001C62.2213 19.7001 61.2082 18.7441 61.2082 17.3459C61.2082 15.9762 62.207 15.0202 63.4484 15.0202C64.704 15.0202 65.7173 15.9762 65.7173 17.3459C65.7312 18.7441 64.7323 19.7001 63.4769 19.7001ZM75.4058 12.7945V15.4197C75.0489 15.3484 74.6637 15.3484 74.5492 15.3484C73.2652 15.3484 72.3664 16.2473 72.3664 17.9452V21.9544H69.7411V12.7945H72.2808V14.1356H72.3091C72.8089 13.0941 73.736 12.6946 74.6782 12.6946C74.8922 12.6946 75.2201 12.7374 75.4058 12.7945ZM83.0682 8.52832V13.8503H83.0393C82.0977 12.7374 80.8275 12.6375 80.3001 12.6375C77.6742 12.6375 75.9049 15.0487 75.9049 17.3744C75.9049 19.8428 77.6031 22.1399 80.2573 22.1399C80.8703 22.1399 82.2406 22.0543 83.111 20.7987H83.1393V21.9687H85.7363V8.52832H83.0682ZM80.8703 19.7001C79.6147 19.7001 78.6019 18.7441 78.6019 17.3459C78.6019 15.9762 79.6147 15.0345 80.8703 15.0345C82.126 15.0345 83.1393 15.9762 83.1393 17.3459C83.1249 18.7441 82.126 19.7001 80.8703 19.7001ZM91.4154 21.9544L86.5495 8.52832H89.56L93.0418 18.7299L96.5376 8.52832H99.4914L94.6116 21.9544H91.4154ZM105.627 8.52832H100.633V21.9544H103.415V17.2175H105.513C108.324 17.2175 110.421 15.7907 110.421 12.823C110.421 9.98364 108.309 8.52832 105.627 8.52832ZM105.398 14.635H103.415V11.1536H105.385C106.54 11.1536 107.625 11.5959 107.625 12.9086C107.625 14.1499 106.497 14.635 105.398 14.635ZM120.738 21.9544L114.559 12.6946V21.9544H111.82V8.52832H115.001L120.823 17.2888V8.52832H123.577V21.9544H120.738Z" fill="white"/>
<path fill-rule="evenodd" clip-rule="evenodd" d="M3.94745 28.332C1.8642 25.4642 0.637085 21.9258 0.637085 18.0877C0.637085 8.45689 8.42784 0.652344 18.045 0.652344C27.6622 0.652344 35.453 8.45689 35.453 18.102C35.453 21.9258 34.2259 25.4642 32.1426 28.3463L23.7811 14.7347L22.9678 16.1045L23.7811 19.8997L18.0307 10.0549L14.4921 16.0617L15.3197 19.8997L12.309 14.749L3.94745 28.332Z" fill="white"/>
</g>
</svg>
