<svg width="107" height="35" viewBox="0 0 107 35" fill="none" xmlns="http://www.w3.org/2000/svg">
<g opacity="0.7">
<path d="M35.3407 8.24316H40.9469L45.2034 19.7669H45.3072L49.3561 8.24316H54.6508L48.0065 25.2692H42.5041" fill="white"/>
<path d="M14.889 12.4994H9.6981V18.2093C9.6981 19.1437 9.80185 20.3894 10.7362 21.0123C11.6706 21.4276 12.7088 21.5315 13.7469 21.3238C14.1622 21.3238 14.5775 21.1162 14.889 20.9085V25.2689C14.266 25.4765 13.5393 25.5803 12.9164 25.6841C9.17896 26.0995 4.09192 25.3726 4.09192 20.7009V12.6031H0.354492V8.24281H3.98811V3.25957H9.6981V8.24281H14.889V12.4994ZM29.5272 8.24281H34.7181V25.2689H29.5272V8.24281ZM29.3195 3.77866C29.2158 2.32521 30.4616 0.975586 32.0188 0.975586C33.5761 0.975586 34.8219 2.11758 34.8219 3.67484V3.77866C34.8219 5.33592 33.4723 6.58173 32.0188 6.47791C30.5654 6.47791 29.3195 5.33592 29.3195 3.77866Z" fill="white"/>
<path d="M93.8946 16.7556C93.8946 19.0396 95.2441 21.0121 97.6318 21.0121C100.02 21.0121 101.369 19.0396 101.369 16.7556C101.369 14.4716 100.02 12.4991 97.6318 12.4991C95.2441 12.4991 93.8946 14.4716 93.8946 16.7556ZM89.2223 16.7556C89.0152 12.0838 92.6484 8.03493 97.3198 7.8273C100.124 7.72349 102.718 8.9693 104.484 11.1495C106.56 14.1602 106.872 18.0014 105.21 21.3236C102.926 25.4763 97.7358 26.9298 93.5827 24.6458C90.7798 23.0885 89.0152 20.0778 89.2223 16.7556ZM83.6166 8.24258V10.5265H83.5126C83.4086 10.3189 83.2014 10.1113 82.9934 9.90363C79.5674 6.99676 73.8575 7.61967 71.6773 11.6686C70.6391 13.8487 70.3277 16.3404 70.7429 18.7281C71.0544 20.9083 71.885 23.1923 73.7536 24.4381C75.9338 25.7877 78.5293 26.0992 80.9171 25.1648C81.7476 24.8533 82.4744 24.2305 83.0974 23.5037H83.2014V25.1648C83.3046 26.3068 82.8894 27.345 82.1629 28.1755C80.7094 29.7328 77.8026 29.629 75.83 29.1099C74.7919 28.7984 73.7537 28.3832 72.8194 27.7602L70.2239 31.4976C71.4697 32.432 72.8193 33.0549 74.2727 33.4702C78.0102 34.4046 83.0974 34.4046 86.0043 31.4976C87.6649 29.8366 88.288 27.345 88.288 24.1266V8.24258H83.6166ZM82.3705 19.974C80.9171 21.5312 78.5293 21.6351 76.972 20.1816L76.7644 19.974C75.4147 18.1052 75.4147 15.6136 76.7644 13.7449C78.2178 12.1876 80.6056 12.0838 82.1629 13.5372L82.3705 13.7449C83.7197 15.5098 83.7197 18.1052 82.3705 19.974C82.9934 19.1434 81.6438 20.7007 82.3705 19.974Z" fill="white"/>
<path d="M16.2384 8.24325H21.5331V11.0463H21.6369C22.0522 10.112 22.7789 9.2814 23.6094 8.65851C25.0629 7.93179 26.724 7.62034 28.2812 8.03561V12.8112C27.243 12.4998 24.9591 12.0845 23.4019 13.0188C22.3636 13.6417 21.6369 14.3684 21.6369 18.1059V25.1655H16.3422L16.2384 8.24325Z" fill="white"/>
<path d="M59.53 18.5211C58.4918 19.144 57.7651 20.3899 58.6994 21.428C59.6337 22.3624 61.2948 22.2585 62.4369 21.8433C63.7865 21.5318 64.7208 20.286 64.7208 18.9364V17.8982C64.8247 17.8982 60.8796 17.6906 59.53 18.5211ZM64.8247 23.1929C64.2017 24.0235 63.3711 24.7502 62.4369 25.1654C58.6994 26.7227 53.4047 25.1654 53.3009 20.4937C53.3009 15.6142 58.5956 14.6799 62.4369 14.5761H64.8247C64.8247 13.7456 64.5132 12.915 63.7865 12.3959C63.1235 11.893 62.3276 11.5954 61.4973 11.5402C60.6669 11.4848 59.8386 11.674 59.1147 12.0845C58.3879 12.4997 57.765 12.915 57.246 13.5379L54.3391 10.631C55.2734 9.69665 56.5193 9.07375 57.765 8.55467C60.1529 7.72413 62.6444 7.62031 65.0322 8.24321C67.2124 8.86612 68.7697 10.631 69.185 12.8112C69.3926 14.057 69.4964 15.3028 69.4964 16.5486V25.1654H64.7208L64.8247 23.1929Z" fill="white"/>
</g>
</svg>
