<svg width="100" height="27" viewBox="0 0 100 27" fill="none" xmlns="http://www.w3.org/2000/svg">
<g opacity="0.7" clip-path="url(#clip0_1_135)">
<path d="M94.1664 12.8554L99.4826 26.9298C97.916 26.706 96.3501 26.4258 94.7553 26.1732L91.7605 18.3966L88.6838 25.5313C87.1729 25.2788 85.6896 25.1947 84.1787 24.9986L89.5788 12.6881L84.681 0.0703125H89.2142L91.9559 7.12005L94.8943 0.0703125H99.4819L94.1664 12.8554ZM81.102 0.0703125H76.9885V24.4676C78.3321 24.5518 79.7302 24.6073 81.102 24.7748V0.0703125ZM73.435 24.1875C69.6867 23.9359 65.937 23.7129 62.1042 23.6279V0.0704206H66.3006V19.6553C68.707 19.7109 71.113 19.9061 73.435 20.018V24.1875ZM57.6267 9.61167V13.808H51.8913V23.3485H47.7514V0.0703125H59.5024V4.26665H51.8922V9.6118H57.6275L57.6267 9.61167ZM40.6999 4.26665V23.5723C39.3005 23.5723 37.8743 23.5723 36.5027 23.6279V4.26665H32.1658V0.0703125H45.0635V4.26665H40.6999ZM27.6337 14.031C25.7876 14.031 23.6048 14.031 22.0379 14.1161V20.3546C24.5001 20.1862 26.9622 19.991 29.4519 19.907V23.9359L17.8416 24.8598V0.0703125H29.4512V4.26665H22.0378V9.91874C23.661 9.91874 26.151 9.83467 27.6335 9.83467V14.0319L27.6337 14.031ZM4.38227 11.6808V26.3416C2.87277 26.5098 1.52887 26.7059 0.1026 26.9298V0.0703125H4.10383L9.55908 15.3194V0.0703125H13.7563V25.1947C12.2736 25.4472 10.7624 25.5313 9.1678 25.7543L4.38227 11.6808Z" fill="white"/>
</g>
<defs>
<clipPath id="clip0_1_135">
<rect width="99.38" height="26.8595" fill="white" transform="translate(0.1026 0.0703125)"/>
</clipPath>
</defs>
</svg>
