<svg width="135" height="37" viewBox="0 0 135 37" fill="none" xmlns="http://www.w3.org/2000/svg">
<g opacity="0.7" clip-path="url(#clip0_1_122)">
<path d="M49.34 27.6295H52.4039L51.8841 25.2495V11.1063H48.957V17.5624C48.0816 16.5502 46.8505 15.9484 45.4281 15.9484C42.5009 15.9484 40.2304 18.3831 40.2304 21.912C40.2304 25.4683 42.5009 27.8757 45.4281 27.8757C46.8779 27.8757 48.1364 27.2465 49.0117 26.1796L49.34 27.6295ZM107.226 19.1217C107.828 19.1217 108.375 19.2859 108.867 19.6415L110.263 16.5229C109.606 16.1125 108.867 15.9484 108.129 15.9484C106.815 15.9484 105.694 16.5502 105.01 17.6718L104.709 16.222H101.7L102.192 18.4651V27.6568H105.12V20.3527C105.503 19.5868 106.241 19.1217 107.226 19.1217ZM115.788 24.8118C114.092 24.8118 112.834 23.6902 112.834 21.9394C112.834 20.1613 114.092 19.067 115.788 19.067C117.512 19.067 118.743 20.1613 118.743 21.9394C118.743 23.6628 117.512 24.8118 115.788 24.8118ZM43.0754 21.912C43.0754 20.1339 44.3338 19.0396 46.0299 19.0396C47.7533 19.0396 48.9844 20.1339 48.9844 21.912C48.9844 23.6628 47.7533 24.7844 46.0299 24.7844C44.3338 24.8118 43.0754 23.6628 43.0754 21.912ZM128.782 24.8118C127.087 24.8118 125.828 23.6902 125.828 21.9394C125.828 20.1613 127.087 19.067 128.782 19.067C130.506 19.067 131.737 20.1613 131.737 21.9394C131.71 23.6628 130.479 24.8118 128.782 24.8118ZM59.5165 18.8755C61.0211 18.8755 62.0059 19.5868 62.3342 20.8998H56.6988C56.9998 19.5594 58.0119 18.8755 59.5165 18.8755ZM94.5051 18.8755C96.0099 18.8755 96.9942 19.5868 97.3225 20.8998H91.6877C92.0434 19.5594 93.0276 18.8755 94.5051 18.8755ZM80.225 27.6295H84.9303L87.994 16.1673H84.7935L82.578 25.4683L80.3345 16.1946H77.1887L80.225 27.6295ZM72.7023 27.6295H75.6292V16.1673H72.7023V27.6295ZM59.9542 27.8484C61.5956 27.8484 63.1822 27.3833 64.5227 26.5353L63.4011 24.0184C62.3616 24.5929 61.1579 24.8938 59.9816 24.8938C58.4496 24.8938 57.3827 24.2921 56.8903 23.1704H65.1519C65.234 22.7327 65.2887 22.3497 65.2887 21.83C65.2887 18.2737 62.8266 15.921 59.5712 15.921C56.2611 15.921 53.8538 18.3284 53.8538 21.8847C53.8264 25.5231 56.2338 27.8484 59.9542 27.8484ZM134.555 21.912C134.555 18.3557 132.093 15.9484 128.782 15.9484C125.445 15.9484 123.011 18.3831 123.011 21.912C123.011 25.441 125.472 27.8757 128.782 27.8757C132.093 27.8757 134.555 25.4683 134.555 21.912ZM94.9155 27.8757C96.5571 27.8757 98.1433 27.438 99.484 26.5626L98.3622 24.0458C97.3225 24.6203 96.1194 24.9212 94.9429 24.9212C93.4107 24.9212 92.3443 24.3194 91.8518 23.1978H100.113C100.195 22.7601 100.25 22.3771 100.25 21.8573C100.25 18.301 97.7877 15.9484 94.5325 15.9484C91.2225 15.9484 88.8148 18.3557 88.8148 21.912C88.8148 25.5778 91.1952 27.8757 94.9155 27.8757ZM115.788 27.8757C119.126 27.8757 121.56 25.441 121.56 21.912C121.56 18.3831 119.099 15.9484 115.788 15.9484C112.451 15.9484 110.016 18.3831 110.016 21.912C110.016 25.441 112.451 27.8757 115.788 27.8757ZM67.1489 27.6295H70.076V11.1063H67.1489V27.6295ZM74.1798 14.6079C75.1914 14.6079 76.0122 13.7872 76.0122 12.7477C76.0122 11.7082 75.2188 10.8874 74.1798 10.8874C73.1401 10.8874 72.3192 11.7082 72.3192 12.7477C72.3192 13.7872 73.1127 14.6079 74.1798 14.6079ZM23.8714 0.683594L22.2026 16.5502L19.3576 3.17301L10.3848 5.06059L13.2024 18.4378L0.290283 21.1734L2.58821 31.8424L25.3212 36.6844L30.5189 25.058L32.981 1.64106L23.8714 0.683594ZM16.6767 23.7176C16.2116 24.1553 15.6098 24.1005 14.9258 23.8817C14.2693 23.6628 13.9958 22.8969 14.2146 21.912C14.4061 21.2007 15.2542 21.0914 15.7192 21.0914C15.8833 21.0914 16.0475 21.1187 16.2116 21.2007C16.5125 21.3375 17.0323 21.6384 17.1418 22.0761C17.3058 22.7327 17.1418 23.2799 16.6767 23.7176ZM23.2695 24.4288C22.9139 25.0306 22.0385 25.1127 21.1358 24.675C20.5339 24.3741 20.5339 23.6628 20.616 23.1978C20.6433 22.9516 20.7527 22.7054 20.9169 22.5139C21.1358 22.2403 21.4914 21.8847 21.8743 21.8847C22.5582 21.8573 23.1054 22.1582 23.4337 22.7054C23.7619 23.2525 23.5978 23.8544 23.2695 24.4288Z" fill="white"/>
</g>
<defs>
<clipPath id="clip0_1_122">
<rect width="134.643" height="36" fill="white" transform="translate(0.290283 0.68457)"/>
</clipPath>
</defs>
</svg>
