<svg width="114" height="35" viewBox="0 0 114 35" fill="none" xmlns="http://www.w3.org/2000/svg">
<g opacity="0.7" clip-path="url(#clip0_1_147)">
<path d="M0.590942 7.17773H4.52819V15.9252H12.8321V7.17773H16.7744V28.6499H12.8321V19.7188H4.52819V28.6499H0.590942V7.17773ZM29.2476 21.6561C29.2476 23.4536 27.7831 24.9163 25.9861 24.9163C24.1884 24.9163 22.7248 23.4536 22.7248 21.6561V12.4116H18.9909V21.6561C18.9909 25.5129 22.1291 28.6499 25.9861 28.6499C29.8421 28.6499 32.9801 25.5129 32.9801 21.6561V12.4116H29.2476V21.6561ZM43.4037 12.5199C41.5516 12.5199 40.2587 13.0574 39.0102 14.2829V7.17773H35.2641V20.3456C35.2641 25.2745 38.8278 28.6499 42.8314 28.6499C47.2823 28.6499 51.182 25.2143 51.182 20.5851C51.182 16.0147 47.586 12.5199 43.4037 12.5199ZM43.4968 25.1844C40.9585 25.1844 39.0175 23.0645 39.0175 20.5851C39.0175 18.1053 40.9585 15.9847 43.4968 15.9847C45.6476 15.9847 47.5897 18.1053 47.5897 20.5851C47.5897 23.0645 45.6476 25.1844 43.4968 25.1844ZM57.4735 13.4636C57.4735 11.5806 58.7283 10.9835 60.1022 10.9835C61.2076 10.9835 62.6713 11.8199 63.6262 12.8357L66.0751 9.96836C64.8512 8.32568 62.3725 7.1903 60.3409 7.1903C56.2783 7.1903 53.3509 9.55019 53.3509 13.4636C53.3509 20.7219 62.2826 18.4211 62.2826 22.4845C62.2826 23.7377 61.0582 24.844 59.6551 24.844C57.4438 24.844 56.7265 23.7686 55.7116 22.6331L52.9928 25.4405C54.7262 27.5615 56.8759 28.6374 59.4456 28.6374C63.2981 28.6374 66.4048 26.2478 66.4048 22.5134C66.4048 14.4488 57.4735 16.9582 57.4735 13.4636ZM76.2667 12.3095C72.2636 12.3095 68.6993 15.683 68.6993 20.6129V33.8148H72.445V26.6758C73.6937 27.9005 74.986 28.4389 76.8389 28.4389C81.0212 28.4389 84.6174 24.9445 84.6174 20.3741C84.6174 15.7443 80.7168 12.3095 76.2667 12.3095ZM76.9321 24.9745C74.3944 24.9745 72.4527 22.8517 72.4527 20.3741C72.4527 17.8942 74.3944 15.7736 76.9321 15.7736C79.0828 15.7736 81.025 17.8942 81.025 20.3741C81.025 22.8517 79.0828 24.9745 76.9321 24.9745ZM112.191 25.1844C109.982 25.1844 109.354 24.2291 109.354 22.7649V16.2834H112.788V12.998H109.354V8.66644L105.562 10.3687V23.5714C105.562 26.9471 107.891 28.6499 111.085 28.6499C111.563 28.6499 112.221 28.6191 112.58 28.5306L113.506 25.1258C113.088 25.1547 112.61 25.1844 112.191 25.1844Z" fill="white"/>
<path d="M102.312 16.475C101.594 15.2394 100.584 14.2489 99.3209 13.5033C98.3776 12.9539 97.399 12.6052 96.2958 12.4555V8.52967C97.399 8.06144 98.0832 7.02509 98.0832 5.81602C98.0832 4.16808 96.7617 2.83266 95.1149 2.83266C93.467 2.83266 92.1224 4.16808 92.1224 5.81602C92.1224 7.02509 92.7674 8.06144 93.87 8.52967V12.4572C92.9879 12.5847 92.0728 12.8597 91.2375 13.2823C89.5312 11.9863 83.936 7.73479 80.6628 5.25164C80.74 4.97176 80.8001 4.68328 80.8001 4.37892C80.8001 2.55366 79.322 1.07422 77.4961 1.07422C75.6701 1.07422 74.1926 2.55366 74.1926 4.37892C74.1926 6.20396 75.6718 7.68385 77.4977 7.68385C78.1202 7.68385 78.6963 7.5017 79.1936 7.20217L79.8844 7.72619L89.3758 14.565C88.8741 15.0257 88.4065 15.5497 88.0328 16.1377C87.2753 17.3364 86.8121 18.6553 86.8121 20.0939V20.3941C86.8121 21.404 87.0046 22.3574 87.3309 23.2531C87.6187 24.0351 88.0399 24.7462 88.5609 25.3891L85.4107 28.5469C84.9542 28.377 84.4586 28.3422 83.9828 28.4465C83.507 28.5508 83.0709 28.79 82.7275 29.1353C82.4899 29.372 82.3013 29.6536 82.1729 29.9636C82.045 30.2737 81.9794 30.6061 81.9805 30.9416C81.9805 31.6238 82.2462 32.265 82.7291 32.7473C82.9657 32.9853 83.2468 33.174 83.5567 33.3025C83.867 33.431 84.1995 33.4967 84.5347 33.4958C84.8704 33.4967 85.2029 33.431 85.5133 33.3025C85.8231 33.174 86.1048 32.9853 86.3413 32.7473C86.5789 32.5106 86.7675 32.2292 86.896 31.9193C87.0239 31.6093 87.09 31.2771 87.0889 30.9416C87.0889 30.6776 87.0481 30.42 86.9715 30.1752L90.2275 26.9188C90.6735 27.2271 91.1559 27.4867 91.6742 27.7106C92.6963 28.1526 93.8248 28.4219 95.0598 28.4219H95.2858C96.6508 28.4219 97.9387 28.1012 99.1494 27.4453C100.425 26.7521 101.424 25.8042 102.178 24.594C102.936 23.3806 103.354 22.0398 103.354 20.5648V20.4911C103.354 19.0401 103.018 17.7014 102.312 16.475ZM98.334 23.306C97.4503 24.2881 96.4342 24.8931 95.2858 24.8931H95.0967C94.4406 24.8931 93.7989 24.7118 93.171 24.3821C92.4631 24.019 91.925 23.5012 91.4845 22.8455C91.0291 22.2019 90.7821 21.4993 90.7821 20.7542V20.528C90.7821 19.7956 90.9227 19.101 91.2772 18.4451C91.6554 17.7281 92.167 17.1705 92.8474 16.7272C93.515 16.287 94.2284 16.0711 95.0228 16.0711H95.0967C95.8167 16.0711 96.4987 16.2131 97.1426 16.5424C97.7981 16.8936 98.334 17.3733 98.7491 18.0042C99.1527 18.6354 99.3925 19.3163 99.4697 20.058C99.4818 20.2121 99.4879 20.3701 99.4879 20.5209C99.4879 21.5275 99.1036 22.4598 98.334 23.306Z" fill="white"/>
</g>
<defs>
<clipPath id="clip0_1_147">
<rect width="113.57" height="33.63" fill="white" transform="translate(0.429932 0.68457)"/>
</clipPath>
</defs>
</svg>
