<svg width="190" height="188" viewBox="0 0 190 188" fill="none" xmlns="http://www.w3.org/2000/svg">
<path d="M147.62 14.716C163.145 24.0685 176.128 37.1113 183.594 53.1399C190.926 68.8817 190.744 86.3773 188.989 103.528C187.199 121.021 184.021 138.656 173.376 152.983C162.273 167.927 146.592 179.897 128.262 185.26C110.03 190.595 90.7059 187.292 72.294 182.558C53.8693 177.82 34.6687 172.031 22.4175 158.043C10.3406 144.254 9.85502 125.115 6.48342 107.42C3.05704 89.4367 -3.697 71.0962 2.56012 53.8245C8.9925 36.069 24.0652 22.2306 40.8719 12.4961C57.1974 3.04033 76.354 -0.366072 95.4358 0.0307395C113.938 0.415508 131.961 5.28245 147.62 14.716Z" fill="#FAE084"/>
<circle cx="95" cy="82" r="60" fill="#FFFCF3"/>
<path d="M75.2 48.5459C74.2016 48.9397 73.175 49.9662 72.7953 50.9928C72.5563 51.6256 72.5 52.1037 72.5 53.3834V54.9866L68.8859 55.0287L65.2578 55.0709L64.4141 55.4787C63.3313 56.0131 62.2625 57.0819 61.7281 58.1647L61.3203 59.0084V83.1256V107.243L61.7281 108.087C62.2625 109.169 63.3313 110.238 64.4141 110.772L65.2578 111.18L82.0906 111.222C98.811 111.251 98.9375 111.251 99.2188 110.969C99.5563 110.632 99.5985 109.746 99.3031 109.338C99.1063 109.071 98.7266 109.071 82.6672 109.001C67.2406 108.93 66.2141 108.916 65.6797 108.677C64.9203 108.34 64.2313 107.651 63.8656 106.891L63.5703 106.258L63.5281 88.4975L63.5 70.7506H95H126.5V80.5944C126.5 90.2553 126.5 90.4381 126.781 90.7194C127.161 91.099 128.089 91.099 128.469 90.7194C128.75 90.4381 128.75 90.3116 128.722 74.7162L128.68 59.0084L128.272 58.1647C127.738 57.0819 126.669 56.0131 125.586 55.4787L124.742 55.0709L121.128 55.0287L117.5 54.9866V53.3834C117.5 51.3584 117.219 50.5147 116.234 49.5162C113.984 47.2803 109.878 48.0819 108.795 50.9928C108.556 51.6256 108.5 52.1037 108.5 53.3834V55.0006H104H99.5V53.3834C99.5 52.1037 99.4438 51.6256 99.2047 50.9928C98.1219 48.0819 94.0156 47.2803 91.7656 49.5162C90.7672 50.5147 90.5 51.3584 90.5 53.3834V55.0006H86H81.5V53.3834C81.5 51.3584 81.2328 50.5147 80.2344 49.5162C78.9828 48.2787 76.9297 47.885 75.2 48.5459ZM78.125 50.9647C78.3922 51.1334 78.7297 51.4991 78.8844 51.7662C79.1656 52.2303 79.1797 52.4834 79.1797 56.1256C79.1797 59.7678 79.1656 60.0209 78.8844 60.485C77.9984 61.9897 76.0016 61.9897 75.1156 60.485C74.8344 60.0209 74.8203 59.7678 74.8203 56.1256C74.8203 52.4834 74.8344 52.2303 75.1156 51.7662C75.5375 51.049 76.2125 50.6412 77 50.6412C77.45 50.6412 77.8156 50.7397 78.125 50.9647ZM96.125 50.9647C96.3922 51.1334 96.7297 51.4991 96.8844 51.7662C97.1656 52.2303 97.1797 52.4834 97.1797 56.1256C97.1797 59.7678 97.1656 60.0209 96.8844 60.485C95.9985 61.9897 94.0016 61.9897 93.1156 60.485C92.8344 60.0209 92.8203 59.7678 92.8203 56.1256C92.8203 52.4834 92.8344 52.2303 93.1156 51.7662C93.5375 51.049 94.2125 50.6412 95 50.6412C95.45 50.6412 95.8156 50.7397 96.125 50.9647ZM114.125 50.9647C114.392 51.1334 114.73 51.4991 114.884 51.7662C115.166 52.2303 115.18 52.4834 115.18 56.1256C115.18 59.7678 115.166 60.0209 114.884 60.485C113.998 61.9897 112.002 61.9897 111.116 60.485C110.834 60.0209 110.82 59.7678 110.82 56.1256C110.82 52.4834 110.834 52.2303 111.116 51.7662C111.538 51.049 112.213 50.6412 113 50.6412C113.45 50.6412 113.816 50.7397 114.125 50.9647ZM72.5 58.8678C72.5 60.8928 72.7672 61.7366 73.7656 62.735C76.0156 64.9709 80.1219 64.1694 81.2047 61.2584C81.4438 60.6256 81.5 60.1475 81.5 58.8678V57.2506H86H90.5V58.8678C90.5 60.1475 90.5563 60.6256 90.7953 61.2584C91.8781 64.1694 95.9844 64.9709 98.2344 62.735C99.2328 61.7366 99.5 60.8928 99.5 58.8678V57.2506H104H108.5V58.8678C108.5 60.8928 108.767 61.7366 109.766 62.735C112.016 64.9709 116.122 64.1694 117.205 61.2584C117.444 60.6256 117.5 60.1475 117.5 58.8537V57.2225L120.636 57.2787C124.123 57.335 124.559 57.4334 125.473 58.3897C126.388 59.36 126.416 59.5428 126.472 64.2397L126.528 68.5006H95H63.4719L63.5281 64.2397C63.5844 59.5428 63.6125 59.3459 64.5266 58.4037C65.4828 57.4053 66.0313 57.2928 69.7297 57.2647L72.5 57.2506V58.8678Z" fill="#141414"/>
<path d="M71.2625 76.6562C70.3484 77.2188 70.25 77.5563 70.25 80.3125C70.25 83.0688 70.3484 83.4062 71.2625 83.9688C71.6844 84.2219 71.9797 84.25 74.75 84.25C77.5203 84.25 77.8156 84.2219 78.2375 83.9688C79.1516 83.4062 79.25 83.0688 79.25 80.3125C79.25 77.5563 79.1516 77.2188 78.2375 76.6562C77.8156 76.4031 77.5203 76.375 74.75 76.375C71.9797 76.375 71.6844 76.4031 71.2625 76.6562ZM77 80.3125V82H74.75H72.5V80.3125V78.625H74.75H77V80.3125Z" fill="#141414"/>
<path d="M84.7625 76.6562C83.8484 77.2188 83.75 77.5563 83.75 80.3125C83.75 83.0688 83.8484 83.4062 84.7625 83.9688C85.1844 84.2219 85.4797 84.25 88.25 84.25C91.0203 84.25 91.3156 84.2219 91.7375 83.9688C92.6516 83.4062 92.75 83.0688 92.75 80.3125C92.75 77.5563 92.6516 77.2188 91.7375 76.6562C91.3156 76.4031 91.0203 76.375 88.25 76.375C85.4797 76.375 85.1844 76.4031 84.7625 76.6562ZM90.5 80.3125V82H88.25H86V80.3125V78.625H88.25H90.5V80.3125Z" fill="#141414"/>
<path d="M98.2625 76.6562C97.3484 77.2188 97.25 77.5563 97.25 80.3125C97.25 83.0688 97.3484 83.4062 98.2625 83.9688C98.6844 84.2219 98.9797 84.25 101.75 84.25C104.52 84.25 104.816 84.2219 105.237 83.9688C106.152 83.4062 106.25 83.0688 106.25 80.3125C106.25 77.5563 106.152 77.2188 105.237 76.6562C104.816 76.4031 104.52 76.375 101.75 76.375C98.9797 76.375 98.6844 76.4031 98.2625 76.6562ZM104 80.3125V82H101.75H99.5V80.3125V78.625H101.75H104V80.3125Z" fill="#141414"/>
<path d="M111.762 76.6562C110.848 77.2188 110.75 77.5563 110.75 80.3125C110.75 83.0688 110.848 83.4062 111.762 83.9688C112.184 84.2219 112.48 84.25 115.25 84.25C118.02 84.25 118.316 84.2219 118.737 83.9688C119.652 83.4062 119.75 83.0688 119.75 80.3125C119.75 77.5563 119.652 77.2188 118.737 76.6562C118.316 76.4031 118.02 76.375 115.25 76.375C112.48 76.375 112.184 76.4031 111.762 76.6562ZM117.5 80.3125V82H115.25H113V80.3125V78.625H115.25H117.5V80.3125Z" fill="#141414"/>
<path d="M71.2625 86.7812C70.3484 87.3438 70.25 87.6813 70.25 90.4375C70.25 93.1938 70.3484 93.5312 71.2625 94.0938C71.6844 94.3469 71.9797 94.375 74.75 94.375C77.5203 94.375 77.8156 94.3469 78.2375 94.0938C79.1516 93.5312 79.25 93.1938 79.25 90.4375C79.25 87.6813 79.1516 87.3438 78.2375 86.7812C77.8156 86.5281 77.5203 86.5 74.75 86.5C71.9797 86.5 71.6844 86.5281 71.2625 86.7812ZM77 90.4375V92.125H74.75H72.5V90.4375V88.75H74.75H77V90.4375Z" fill="#141414"/>
<path d="M84.7625 86.7812C83.8484 87.3438 83.75 87.6813 83.75 90.4375C83.75 93.1938 83.8484 93.5312 84.7625 94.0938C85.1844 94.3469 85.4797 94.375 88.25 94.375C91.0203 94.375 91.3156 94.3469 91.7375 94.0938C92.6516 93.5312 92.75 93.1938 92.75 90.4375C92.75 87.6813 92.6516 87.3438 91.7375 86.7812C91.3156 86.5281 91.0203 86.5 88.25 86.5C85.4797 86.5 85.1844 86.5281 84.7625 86.7812ZM90.5 90.4375V92.125H88.25H86V90.4375V88.75H88.25H90.5V90.4375Z" fill="#141414"/>
<path d="M98.2625 86.7816C97.3484 87.3441 97.25 87.6816 97.25 90.4379C97.25 93.1941 97.3484 93.5316 98.2625 94.0941C98.8953 94.4738 99.9641 94.4738 100.344 94.0941C100.948 93.4895 100.555 92.1254 99.7812 92.1254C99.5141 92.1254 99.5 92.027 99.5 90.4379V88.7504H102.031C104.38 88.7504 104.577 88.7363 104.844 88.4691C105.027 88.2863 105.125 88.0051 105.125 87.6254C105.125 87.2457 105.027 86.9645 104.844 86.7816C104.577 86.5145 104.38 86.5004 101.652 86.5004C98.9797 86.5004 98.6844 86.5285 98.2625 86.7816Z" fill="#141414"/>
<path d="M111.031 86.7675C108.149 87.4003 105.927 88.6237 103.775 90.7753C101.581 92.969 100.372 95.1909 99.7532 98.1722C99.3454 100.113 99.4579 103.333 99.9782 105.105C100.752 107.721 101.989 109.774 103.888 111.616C105.744 113.43 107.614 114.513 110.145 115.272C111.917 115.792 115.138 115.905 117.078 115.497C120.059 114.878 122.281 113.669 124.475 111.475C126.669 109.282 127.878 107.06 128.497 104.078C128.905 102.138 128.792 98.9175 128.272 97.1456C127.513 94.6144 126.43 92.7441 124.616 90.8878C122.774 88.9894 120.72 87.7659 118.105 86.9784C116.403 86.4722 112.859 86.3597 111.031 86.7675ZM117.219 89.2425C118.611 89.5941 120.819 90.719 121.93 91.6612C127.442 96.3019 127.892 104.458 122.928 109.675C119.3 113.486 113.197 114.485 108.528 112.024C105.308 110.322 103.002 107.383 102.172 103.938C101.792 102.307 101.792 99.944 102.172 98.3128C102.777 95.8097 104.352 93.2925 106.363 91.6191C107.431 90.7331 109.681 89.58 111.031 89.2284C112.874 88.7503 115.334 88.7503 117.219 89.2425Z" fill="#141414"/>
<path d="M116.347 100.52L111.875 104.978L109.794 102.911C107.797 100.942 107.684 100.844 107.136 100.844C106.391 100.844 105.969 101.28 105.969 102.039C105.969 102.573 106.081 102.714 108.612 105.231C111.242 107.875 111.256 107.875 111.875 107.875H112.508L117.528 102.841C122.492 97.8906 122.562 97.8063 122.562 97.2438C122.562 96.4844 122.127 96.0625 121.367 96.0625C120.833 96.0625 120.678 96.1891 116.347 100.52Z" fill="#141414"/>
<path d="M71.2625 96.9062C70.3484 97.4688 70.25 97.8063 70.25 100.562C70.25 103.319 70.3484 103.656 71.2625 104.219C71.6844 104.472 71.9797 104.5 74.75 104.5C77.5203 104.5 77.8156 104.472 78.2375 104.219C79.1516 103.656 79.25 103.319 79.25 100.562C79.25 97.8063 79.1516 97.4688 78.2375 96.9062C77.8156 96.6531 77.5203 96.625 74.75 96.625C71.9797 96.625 71.6844 96.6531 71.2625 96.9062ZM77 100.562V102.25H74.75H72.5V100.562V98.875H74.75H77V100.562Z" fill="#141414"/>
<path d="M84.7625 96.9062C83.8484 97.4688 83.75 97.8063 83.75 100.562C83.75 103.319 83.8484 103.656 84.7625 104.219C85.1844 104.472 85.4797 104.5 88.25 104.5C91.0203 104.5 91.3156 104.472 91.7375 104.219C92.6516 103.656 92.75 103.319 92.75 100.562C92.75 97.8063 92.6516 97.4688 91.7375 96.9062C91.3156 96.6531 91.0203 96.625 88.25 96.625C85.4797 96.625 85.1844 96.6531 84.7625 96.9062ZM90.5 100.562V102.25H88.25H86V100.562V98.875H88.25H90.5V100.562Z" fill="#141414"/>
</svg>
